<?xml version="1.0" standalone="no"?>
<!DOCTYPE svg PUBLIC "-//W3C//DTD SVG 20010904//EN"
 "http://www.w3.org/TR/2001/REC-SVG-20010904/DTD/svg10.dtd">
<svg version="1.0" xmlns="http://www.w3.org/2000/svg"
 width="640.000000pt" height="640.000000pt" viewBox="0 0 640.000000 640.000000"
 preserveAspectRatio="xMidYMid meet">
<metadata>
Created by potrace 1.14, written by Peter Selinger 2001-2017
</metadata>
<g transform="translate(0.000000,640.000000) scale(0.100000,-0.100000)"
fill="#000000" stroke="none">
<path d="M0 3200 l0 -3200 3200 0 3200 0 0 3200 0 3200 -3200 0 -3200 0 0
-3200z m2104 2456 c18 -8 41 -24 50 -37 24 -34 20 -105 -8 -164 -14 -27 -21
-51 -16 -53 12 -4 84 33 153 80 75 51 117 68 167 68 56 0 90 -34 90 -90 0 -49
-10 -70 -62 -129 -51 -59 -49 -69 12 -68 84 1 130 -40 130 -118 0 -52 -22 -88
-119 -189 -151 -159 -421 -503 -421 -535 0 -5 51 -11 113 -14 102 -6 114 -5
137 13 74 59 274 186 369 234 113 58 514 215 661 260 271 81 644 130 920 119
186 -7 468 -62 671 -131 96 -32 299 -141 429 -229 94 -65 227 -207 311 -333
66 -99 192 -349 215 -425 23 -79 23 -211 0 -290 -25 -84 -128 -281 -176 -337
-39 -45 -216 -171 -330 -236 -86 -48 -380 -178 -479 -211 -349 -117 -1017
-145 -1556 -66 -281 41 -499 108 -720 218 -168 84 -276 167 -363 282 -50 66
-62 76 -74 69 -17 -11 -179 -347 -174 -360 4 -11 22 -6 82 26 58 31 87 40 124
40 86 0 139 -71 126 -167 -3 -26 -35 -101 -77 -182 -74 -143 -83 -181 -36
-166 97 29 167 10 187 -51 18 -52 7 -104 -39 -201 -40 -83 -49 -113 -33 -113
4 0 25 5 47 10 95 22 159 -30 152 -126 -3 -39 -18 -76 -70 -170 -74 -132 -95
-180 -84 -190 4 -4 39 10 79 30 83 41 120 41 162 0 60 -61 38 -146 -121 -454
-57 -110 -83 -174 -92 -222 -18 -95 -62 -133 -127 -111 -77 26 -87 110 -30
248 46 113 56 144 48 149 -4 2 -28 0 -53 -6 -61 -14 -113 -3 -151 31 -28 25
-32 35 -36 92 -3 61 0 70 52 179 34 69 52 118 47 123 -6 6 -22 5 -42 -2 -47
-16 -90 -13 -126 9 -61 37 -58 118 10 269 26 58 47 108 47 111 0 4 -27 10 -61
13 -70 6 -103 30 -118 83 -13 47 0 92 67 234 69 144 99 226 89 236 -4 4 -22
-3 -40 -16 -103 -77 -128 -90 -179 -90 -44 0 -54 4 -85 35 -34 34 -35 38 -31
93 5 67 52 181 173 427 88 177 103 215 87 215 -19 0 -132 -102 -189 -169 -75
-88 -107 -111 -158 -111 -51 0 -80 20 -95 66 -21 63 16 151 150 359 42 66 108
174 147 240 223 381 238 427 112 343 -124 -83 -161 -128 -580 -706 -90 -124
-151 -151 -211 -92 -28 28 -30 35 -26 84 3 31 16 75 32 107 38 73 152 234 286
404 200 255 384 507 573 788 65 96 41 89 -115 -35 -121 -95 -307 -280 -432
-428 -100 -119 -278 -383 -388 -575 -41 -71 -161 -303 -267 -515 -106 -212
-203 -405 -215 -430 -45 -88 -131 -116 -187 -61 -52 52 -43 101 73 411 27 74
79 199 114 277 55 120 64 149 64 198 0 86 49 217 153 410 158 295 305 521 481
743 197 250 426 559 426 576 0 33 -134 -60 -298 -207 -186 -167 -372 -382
-490 -566 -62 -96 -173 -359 -188 -445 -8 -44 -21 -87 -30 -97 -37 -41 -101
-30 -134 23 -23 38 -27 124 -9 179 20 62 152 353 187 413 58 99 234 324 347
444 309 326 785 667 938 671 10 1 33 -5 51 -13z"/>
<path d="M3893 4589 c-326 -20 -718 -111 -959 -224 -120 -56 -223 -127 -327
-225 -104 -98 -148 -162 -183 -266 -67 -200 21 -333 354 -538 114 -69 228
-121 415 -185 317 -110 390 -125 637 -136 144 -6 435 7 579 26 297 39 458 70
611 120 167 55 256 107 378 223 157 149 210 257 199 410 -3 44 -14 104 -23
131 -18 54 -50 105 -65 105 -5 0 -9 -36 -9 -79 0 -147 -56 -260 -194 -389
-138 -129 -321 -228 -576 -310 -134 -44 -217 -63 -538 -126 -325 -64 -362 -67
-397 -31 -34 33 -34 88 0 119 32 30 56 36 365 96 308 60 419 86 556 134 219
76 370 162 478 270 120 120 145 215 86 334 -80 158 -336 358 -569 442 -224 81
-521 117 -818 99z"/>
</g>
</svg>
